# ICROS2025 material281
v -2800.877197265625 -1881.50634765625 36.00016784667969
v -2800.877197265625 -1881.50634765625 186.0001678466797
v -2800.877197265625 -2156.50634765625 36.00016784667969
v -2800.877197265625 -2156.50634765625 186.0001678466797
v -2525.877197265625 -2156.50634765625 186.0001678466797
v -2800.877197265625 -2156.50634765625 186.0001678466797
v -2525.877197265625 -2156.50634765625 36.00016784667969
v -2800.877197265625 -2156.50634765625 36.00016784667969
v -2525.877197265625 -2156.50634765625 36.00016784667969
v -2525.877197265625 -2156.50634765625 186.0001678466797
v -2525.877197265625 -1881.50634765625 36.00016784667969
v -2525.877197265625 -1881.50634765625 186.0001678466797
v -2800.877197265625 -1881.50634765625 186.0001678466797
v -2525.877197265625 -1881.50634765625 186.0001678466797
v -2800.877197265625 -1881.50634765625 36.00016784667969
v -2525.877197265625 -1881.50634765625 36.00016784667969
v -2800.877197265625 -1881.50634765625 36.00016784667969
v -2800.877197265625 -2156.50634765625 36.00016784667969
v -2525.877197265625 -2156.50634765625 36.00016784667969
v -2525.877197265625 -1881.50634765625 36.00016784667969
v -2800.877197265625 -1881.50634765625 186.0001678466797
v -2800.877197265625 -2156.50634765625 186.0001678466797
v -2525.877197265625 -2156.50634765625 186.0001678466797
v -2525.877197265625 -1881.50634765625 186.0001678466797
vn -1.0 5.083803869752033e-16 0.0
vn -1.0 5.083803869752033e-16 0.0
vn -1.0 5.083803869752033e-16 0.0
vn -1.0 5.083803869752033e-16 0.0
vn 1.1452463546864642e-15 -1.0 -1.850198461236449e-14
vn 1.1452463546864642e-15 -1.0 -1.850198461236449e-14
vn 1.1452463546864642e-15 -1.0 -1.850198461236449e-14
vn 1.1452463546864642e-15 -1.0 -1.850198461236449e-14
vn 1.0 -5.083803869752033e-16 0.0
vn 1.0 -5.083803869752033e-16 0.0
vn 1.0 -5.083803869752033e-16 0.0
vn 1.0 -5.083803869752033e-16 0.0
vn -1.1452463546864642e-15 1.0 1.850198461236449e-14
vn -1.1452463546864642e-15 1.0 1.850198461236449e-14
vn -1.1452463546864642e-15 1.0 1.850198461236449e-14
vn -1.1452463546864642e-15 1.0 1.850198461236449e-14
vn 2.959078100670286e-32 1.8476146719341446e-14 -1.0
vn 2.959078100670286e-32 1.8476146719341446e-14 -1.0
vn 2.959078100670286e-32 1.8476146719341446e-14 -1.0
vn 2.959078100670286e-32 1.8476146719341446e-14 -1.0
vn 0.0 -1.850198461236449e-14 1.0
vn 0.0 -1.850198461236449e-14 1.0
vn 0.0 -1.850198461236449e-14 1.0
vn 0.0 -1.850198461236449e-14 1.0
f 4//4 2//2 1//1
f 4//4 1//1 3//3
f 6//6 7//7 5//5
f 6//6 8//8 7//7
f 12//12 10//10 9//9
f 12//12 9//9 11//11
f 14//14 15//15 13//13
f 14//14 16//16 15//15
f 20//20 18//18 17//17
f 20//20 19//19 18//18
f 24//24 21//21 22//22
f 24//24 22//22 23//23
