# ICROS2025 material238
v -2472.877197265625 -5668.50634765625 20.0
v -2472.877197265625 -5668.50634765625 170.0
v -1572.877197265625 -5668.50634765625 20.0
v -1572.877197265625 -5668.50634765625 170.0
v -1572.877197265625 -5148.50634765625 170.0
v -1572.877197265625 -5668.50634765625 170.0
v -1572.877197265625 -5148.50634765625 20.0
v -1572.877197265625 -5668.50634765625 20.0
v -1572.877197265625 -5148.50634765625 20.0
v -1572.877197265625 -5148.50634765625 170.0
v -2472.877197265625 -5148.50634765625 20.0
v -2472.877197265625 -5148.50634765625 170.0
v -2472.877197265625 -5668.50634765625 170.0
v -2472.877197265625 -5148.50634765625 170.0
v -2472.877197265625 -5668.50634765625 20.0
v -2472.877197265625 -5148.50634765625 20.0
v -2472.877197265625 -5668.50634765625 20.0
v -1572.877197265625 -5668.50634765625 20.0
v -1572.877197265625 -5148.50634765625 20.0
v -2472.877197265625 -5148.50634765625 20.0
v -2472.877197265625 -5668.50634765625 170.0
v -1572.877197265625 -5668.50634765625 170.0
v -1572.877197265625 -5148.50634765625 170.0
v -2472.877197265625 -5148.50634765625 170.0
vn -1.5188708936544415e-15 -1.0 -3.3162348383608683e-16
vn -1.5188708936544415e-15 -1.0 -3.3162348383608683e-16
vn -1.5188708936544415e-15 -1.0 -3.3162348383608683e-16
vn -1.5188708936544415e-15 -1.0 -3.3162348383608683e-16
vn 1.0 -5.083212005480139e-16 0.0
vn 1.0 -5.083212005480139e-16 0.0
vn 1.0 -5.083212005480139e-16 0.0
vn 1.0 -5.083212005480139e-16 0.0
vn 1.5188708936544415e-15 1.0 3.3162348383608683e-16
vn 1.5188708936544415e-15 1.0 3.3162348383608683e-16
vn 1.5188708936544415e-15 1.0 3.3162348383608683e-16
vn 1.5188708936544415e-15 1.0 3.3162348383608683e-16
vn -1.0 5.083212005480139e-16 0.0
vn -1.0 5.083212005480139e-16 0.0
vn -1.0 5.083212005480139e-16 0.0
vn -1.0 5.083212005480139e-16 0.0
vn 0.0 3.3162348383608683e-16 -1.0
vn 0.0 3.3162348383608683e-16 -1.0
vn 0.0 3.3162348383608683e-16 -1.0
vn 0.0 3.3162348383608683e-16 -1.0
vn 0.0 -3.3162348383608683e-16 1.0
vn 0.0 -3.3162348383608683e-16 1.0
vn 0.0 -3.3162348383608683e-16 1.0
vn 0.0 -3.3162348383608683e-16 1.0
f 4//4 2//2 1//1
f 4//4 1//1 3//3
f 6//6 7//7 5//5
f 6//6 8//8 7//7
f 11//11 10//10 9//9
f 12//12 10//10 11//11
f 14//14 15//15 13//13
f 14//14 16//16 15//15
f 20//20 18//18 17//17
f 20//20 19//19 18//18
f 24//24 21//21 22//22
f 24//24 22//22 23//23
