# ICROS2025 material217
v 1064.122802734375 -407.5063171386719 112.0
v 1514.122802734375 -407.5063171386719 112.0
v 1064.122802734375 -407.5063171386719 96.0
v 1514.122802734375 -407.5063171386719 96.0
v 1064.122802734375 -407.5063171386719 96.0
v 1064.122802734375 -407.5063171386719 112.0
v 614.1227416992188 -1757.50634765625 96.0
v 614.1227416992188 -1757.50634765625 112.0
v 614.1227416992188 -1757.50634765625 96.0
v 614.1227416992188 -1757.50634765625 112.0
v 614.1227416992188 -2207.50634765625 96.0
v 614.1227416992188 -2207.50634765625 112.0
v 1064.122802734375 -2207.50634765625 112.0
v 614.1227416992188 -2207.50634765625 112.0
v 1064.122802734375 -2207.50634765625 96.0
v 614.1227416992188 -2207.50634765625 96.0
v 1514.122802734375 -857.5062866210938 112.0
v 1064.122802734375 -2207.50634765625 112.0
v 1514.122802734375 -857.5062866210938 96.0
v 1064.122802734375 -2207.50634765625 96.0
v 1514.122802734375 -857.5062866210938 96.0
v 1514.122802734375 -857.5062866210938 112.0
v 1514.122802734375 -407.5063171386719 96.0
v 1514.122802734375 -407.5063171386719 112.0
v 1064.122802734375 -407.5063171386719 96.0
v 1514.122802734375 -407.5063171386719 96.0
v 614.1227416992188 -1757.50634765625 96.0
v 614.1227416992188 -2207.50634765625 96.0
v 1064.122802734375 -2207.50634765625 96.0
v 1514.122802734375 -857.5062866210938 96.0
v 1064.122802734375 -407.5063171386719 112.0
v 1514.122802734375 -407.5063171386719 112.0
v 614.1227416992188 -1757.50634765625 112.0
v 614.1227416992188 -2207.50634765625 112.0
v 1064.122802734375 -2207.50634765625 112.0
v 1514.122802734375 -857.5062866210938 112.0
vn -5.058433115399399e-16 1.0 3.459772247509194e-17
vn -5.058433115399399e-16 1.0 3.459772247509194e-17
vn -5.058433115399399e-16 1.0 3.459772247509194e-17
vn -5.058433115399399e-16 1.0 3.459772247509194e-17
vn -0.9486832920900493 0.31622778389823075 1.094076110849941e-17
vn -0.9486832920900493 0.31622778389823075 1.094076110849941e-17
vn -0.9486832920900493 0.31622778389823075 1.094076110849941e-17
vn -0.9486832920900493 0.31622778389823075 1.094076110849941e-17
vn -1.0 -5.058433115399399e-16 0.0
vn -1.0 -5.058433115399399e-16 0.0
vn -1.0 -5.058433115399399e-16 0.0
vn -1.0 -5.058433115399399e-16 0.0
vn 5.058433115399399e-16 -1.0 -3.459772247509194e-17
vn 5.058433115399399e-16 -1.0 -3.459772247509194e-17
vn 5.058433115399399e-16 -1.0 -3.459772247509194e-17
vn 5.058433115399399e-16 -1.0 -3.459772247509194e-17
vn 0.9486832920900493 -0.31622778389823075 -1.094076110849941e-17
vn 0.9486832920900493 -0.31622778389823075 -1.094076110849941e-17
vn 0.9486832920900493 -0.31622778389823075 -1.094076110849941e-17
vn 0.9486832920900493 -0.31622778389823075 -1.094076110849941e-17
vn 1.0 5.058433115399399e-16 0.0
vn 1.0 5.058433115399399e-16 0.0
vn 1.0 5.058433115399399e-16 0.0
vn 1.0 5.058433115399399e-16 0.0
vn 0.0 3.459772247509194e-17 -1.0
vn 0.0 3.459772247509194e-17 -1.0
vn 0.0 3.459772247509194e-17 -1.0
vn 0.0 3.459772247509194e-17 -1.0
vn 0.0 3.459772247509194e-17 -1.0
vn 0.0 3.459772247509194e-17 -1.0
vn 6.3159354991971114e-18 -2.828178821666575e-17 1.0
vn 0.0 -3.459772247509194e-17 1.0
vn 1.403541203662011e-17 -3.810657631142758e-17 1.0
vn 1.5974370194923906e-32 -6.61774003846678e-17 1.0
vn 1.8947807738362253e-17 -4.7229594300666775e-17 1.0
vn 1.403541203662011e-17 -3.459772247509194e-17 1.0
f 2//2 3//3 1//1
f 2//2 4//4 3//3
f 8//8 6//6 5//5
f 8//8 5//5 7//7
f 12//12 10//10 9//9
f 12//12 9//9 11//11
f 14//14 15//15 13//13
f 14//14 16//16 15//15
f 18//18 19//19 17//17
f 18//18 20//20 19//19
f 24//24 22//22 21//21
f 24//24 21//21 23//23
f 29//29 28//28 27//27
f 30//30 29//29 27//27
f 25//25 30//30 27//27
f 26//26 30//30 25//25
f 35//35 33//33 34//34
f 36//36 33//33 35//35
f 31//31 33//33 36//36
f 32//32 31//31 36//36
