# ICROS2025 material230
v -672.8772583007812 -5668.50634765625 20.0
v -672.8772583007812 -5668.50634765625 36.0
v -672.8772583007812 -6568.50634765625 20.0
v -672.8772583007812 -6568.50634765625 36.0
v -672.8772583007812 -6568.50634765625 20.0
v -672.8772583007812 -6568.50634765625 36.0
v 159.1227569580078 -6568.50634765625 20.0
v 159.1227569580078 -6568.50634765625 36.0
v 159.1227569580078 -6568.50634765625 20.0
v 159.1227569580078 -6568.50634765625 36.0
v 159.1227569580078 -5668.50634765625 20.0
v 159.1227569580078 -5668.50634765625 36.0
v 159.1227569580078 -5668.50634765625 20.0
v 159.1227569580078 -5668.50634765625 36.0
v -672.8772583007812 -5668.50634765625 20.0
v -672.8772583007812 -5668.50634765625 36.0
v -672.8772583007812 -5668.50634765625 20.0
v -672.8772583007812 -6568.50634765625 20.0
v 159.1227569580078 -6568.50634765625 20.0
v 159.1227569580078 -5668.50634765625 20.0
v -672.8772583007812 -5668.50634765625 36.0
v -672.8772583007812 -6568.50634765625 36.0
v 159.1227569580078 -6568.50634765625 36.0
v 159.1227569580078 -5668.50634765625 36.0
vn -1.0 1.4927293393198057e-15 0.0
vn -1.0 1.4927293393198057e-15 0.0
vn -1.0 1.4927293393198057e-15 0.0
vn -1.0 1.4927293393198057e-15 0.0
vn -1.4927293393198057e-15 -1.0 -2.986637377925275e-16
vn -1.4927293393198057e-15 -1.0 -2.986637377925275e-16
vn -1.4927293393198057e-15 -1.0 -2.986637377925275e-16
vn -1.4927293393198057e-15 -1.0 -2.986637377925275e-16
vn 1.0 -1.4927293393198057e-15 0.0
vn 1.0 -1.4927293393198057e-15 0.0
vn 1.0 -1.4927293393198057e-15 0.0
vn 1.0 -1.4927293393198057e-15 0.0
vn 1.4927293393198057e-15 1.0 2.986637377925275e-16
vn 1.4927293393198057e-15 1.0 2.986637377925275e-16
vn 1.4927293393198057e-15 1.0 2.986637377925275e-16
vn 1.4927293393198057e-15 1.0 2.986637377925275e-16
vn 5.892489061785177e-33 3.0261120249430815e-16 -1.0
vn 5.892489061785177e-33 3.0261120249430815e-16 -1.0
vn 5.892489061785177e-33 3.0261120249430815e-16 -1.0
vn 5.892489061785177e-33 3.0261120249430815e-16 -1.0
vn 0.0 -2.986637377925275e-16 1.0
vn 0.0 -2.986637377925275e-16 1.0
vn 0.0 -2.986637377925275e-16 1.0
vn 0.0 -2.986637377925275e-16 1.0
f 4//4 2//2 1//1
f 4//4 1//1 3//3
f 8//8 6//6 5//5
f 8//8 5//5 7//7
f 11//11 10//10 9//9
f 12//12 10//10 11//11
f 16//16 14//14 13//13
f 16//16 13//13 15//15
f 19//19 18//18 17//17
f 19//19 17//17 20//20
f 23//23 21//21 22//22
f 23//23 24//24 21//21
