# ICROS2025 material231
v 2441.122802734375 -7500.63623046875 20.0
v -704.8772583007812 -7500.63623046875 20.000167846679688
v 2441.122802734375 -7500.63623046875 820.0
v -3436.877197265625 -7500.63623046875 820.0001831054688
v -3436.877197265625 -7500.63623046875 20.0
v -2504.877197265625 -7500.63623046875 20.000167846679688
v -2504.877197265625 -7500.63623046875 502.62017822265625
v -704.8772583007812 -7500.63623046875 52.50016784667969
v -2504.877197265625 -6600.63623046875 502.62017822265625
v -2504.877197265625 -7500.63623046875 502.62017822265625
v -2504.877197265625 -7500.63623046875 20.000167846679688
v -2504.877197265625 -6600.63623046875 20.000167846679688
v -704.8772583007812 -6600.63623046875 52.50016784667969
v -704.8772583007812 -7500.63623046875 52.50016784667969
v -2504.877197265625 -6600.63623046875 502.62017822265625
v -2504.877197265625 -7500.63623046875 502.62017822265625
v -704.8772583007812 -6600.63623046875 52.50016784667969
v -704.8772583007812 -7500.63623046875 52.50016784667969
v -704.8772583007812 -6600.63623046875 20.000167846679688
v -704.8772583007812 -7500.63623046875 20.000167846679688
v -2504.877197265625 -7500.63623046875 20.000167846679688
v -704.8772583007812 -7500.63623046875 20.000167846679688
v -704.8772583007812 -6600.63623046875 20.000167846679688
v -2504.877197265625 -6600.63623046875 20.000167846679688
v -704.8772583007812 -6600.63623046875 20.000167846679688
v -704.8772583007812 -6600.63623046875 52.50016784667969
v -2504.877197265625 -6600.63623046875 20.000167846679688
v -2504.877197265625 -6600.63623046875 502.62017822265625
v 2473.122802734375 499.36370849609375 20.0
v 2441.122802734375 499.36370849609375 20.0
v 2473.122802734375 499.36370849609375 820.0
v 2441.122802734375 499.36370849609375 820.0
v 2441.122802734375 499.36370849609375 20.0
v 2441.122802734375 -7500.63623046875 20.0
v 2441.122802734375 499.36370849609375 820.0
v 2441.122802734375 -7500.63623046875 820.0
v -3436.877197265625 -7532.63623046875 820.0001831054688
v 2441.122802734375 -7532.63623046875 820.0001831054688
v -3436.877197265625 -7532.63623046875 20.0
v 2473.122802734375 -7532.63623046875 20.0
v 2473.122802734375 -7532.63623046875 820.0
v 2473.122802734375 -7532.63623046875 820.0
v 2473.122802734375 499.36370849609375 820.0
v 2441.122802734375 -7532.63623046875 820.0001831054688
v -3436.877197265625 -7532.63623046875 820.0001831054688
v -3436.877197265625 -7500.63623046875 820.0001831054688
v 2441.122802734375 -7500.63623046875 820.0
v 2441.122802734375 499.36370849609375 820.0
v 2473.122802734375 -7532.63623046875 820.0
v 2473.122802734375 499.36370849609375 820.0
v 2473.122802734375 -7532.63623046875 20.0
v 2473.122802734375 499.36370849609375 20.0
v 2473.122802734375 -7532.63623046875 20.0
v -3436.877197265625 -7532.63623046875 20.0
v 2473.122802734375 499.36370849609375 20.0
v 2441.122802734375 499.36370849609375 20.0
v 2441.122802734375 -7500.63623046875 20.0
v -704.8772583007812 -7500.63623046875 20.000167846679688
v -2504.877197265625 -7500.63623046875 20.000167846679688
v -3436.877197265625 -7500.63623046875 20.0
v -3436.877197265625 -7500.63623046875 820.0001831054688
v -3436.877197265625 -7532.63623046875 820.0001831054688
v -3436.877197265625 -7500.63623046875 20.0
v -3436.877197265625 -7532.63623046875 20.0
vn -9.60079976098109e-16 1.0 -2.2712002634497908e-15
vn -9.375078186032028e-16 1.0 -8.622804005727148e-17
vn -1.2810549587680088e-15 1.0 -1.5097644424385106e-15
vn -1.2370504324878454e-15 1.0 -2.133598067102435e-15
vn -1.1485082785663405e-15 1.0 -7.953192564838204e-16
vn -1.515698967025211e-15 1.0 -8.622804005727148e-17
vn -1.3915049845955357e-15 1.0 -9.98743959645834e-16
vn -1.2470460565401566e-15 1.0 -1.1427057852402933e-15
vn -1.0 -1.0104242263511156e-15 9.422472855804458e-16
vn -1.0 -1.2630616496277225e-15 4.711236427902229e-16
vn -1.0 -1.515698967025211e-15 0.0
vn -1.0 -1.2630616496277225e-15 4.711236427902229e-16
vn 0.2425964914195775 3.9006647958692693e-16 0.9701272815207863
vn 0.2425964914195775 4.513554276499535e-16 0.9701272815207863
vn 0.2425964914195775 3.287775315239004e-16 0.9701272815207863
vn 0.2425964914195775 3.9006647958692693e-16 0.9701272815207863
vn 1.0 1.515698967025211e-15 0.0
vn 1.0 1.515698967025211e-15 0.0
vn 1.0 1.515698967025211e-15 0.0
vn 1.0 1.515698967025211e-15 0.0
vn 0.0 -8.622804005727148e-17 -1.0
vn 0.0 -8.622804005727148e-17 -1.0
vn 0.0 -8.622804005727148e-17 -1.0
vn 0.0 -8.622804005727148e-17 -1.0
vn -1.515698967025211e-15 1.0 -8.622804005727148e-17
vn -1.515698967025211e-15 1.0 -8.622804005727148e-17
vn -1.515698967025211e-15 1.0 -8.622804005727148e-17
vn -1.515698967025211e-15 1.0 -8.622804005727148e-17
vn -1.515698967025211e-15 1.0 -8.622804005727148e-17
vn -1.515698967025211e-15 1.0 -8.622804005727148e-17
vn -1.515698967025211e-15 1.0 -8.622804005727148e-17
vn -1.515698967025211e-15 1.0 -8.622804005727148e-17
vn -1.0 -1.515698967025211e-15 0.0
vn -1.0 -1.515698967025211e-15 0.0
vn -1.0 -1.515698967025211e-15 0.0
vn -1.0 -1.515698967025211e-15 0.0
vn 1.3609703997590839e-15 -1.0 1.2230961999565412e-15
vn 1.438753647063683e-15 -1.0 6.515843298401068e-16
vn 1.4385447475630665e-15 -1.0 6.531190476614132e-16
vn 1.515698967025211e-15 -1.0 8.622804005727148e-17
vn 1.515698967025211e-15 -1.0 8.622804005727148e-17
vn 2.0727060956460254e-08 2.0727060956460254e-08 0.9999999999999996
vn 0.0 8.622804005727148e-17 1.0
vn 2.8358162040734063e-08 2.6186989998587947e-06 0.999999999996571
vn 0.0 8.622804005727148e-17 1.0
vn 1.4217676813595233e-08 2.611609488658548e-06 0.9999999999965896
vn 1.523498305287687e-08 1.406855403728031e-06 0.9999999999990103
vn 0.0 8.622804005727148e-17 1.0
vn 1.0 1.515698967025211e-15 0.0
vn 1.0 1.515698967025211e-15 0.0
vn 1.0 1.515698967025211e-15 0.0
vn 1.0 1.515698967025211e-15 0.0
vn -9.78133751770669e-09 1.7967093981467873e-06 -0.999999999998386
vn 1.934083471134646e-08 4.659932073940918e-06 -0.9999999999891425
vn 0.0 -8.622804005727148e-17 -1.0
vn 0.0 -8.622804005727148e-17 -1.0
vn -8.715376864643076e-09 -8.715376864643076e-09 -1.0
vn -1.539641658599475e-08 3.6941776215574326e-06 -0.9999999999931766
vn 6.117990380935367e-08 3.4413694720365922e-06 -0.9999999999940767
vn 1.7933849960627127e-07 -8.622776874202918e-17 -0.999999999999984
vn -1.0 -1.515698967025211e-15 0.0
vn -1.0 -1.515698967025211e-15 0.0
vn -1.0 -1.515698967025211e-15 0.0
vn -1.0 -1.515698967025211e-15 0.0
f 7//7 5//5 4//4
f 7//7 6//6 5//5
f 1//1 2//2 8//8
f 3//3 1//1 8//8
f 3//3 7//7 4//4
f 3//3 8//8 7//7
f 12//12 11//11 10//10
f 9//9 12//12 10//10
f 16//16 14//14 13//13
f 16//16 13//13 15//15
f 18//18 19//19 17//17
f 18//18 20//20 19//19
f 24//24 22//22 21//21
f 24//24 23//23 22//22
f 27//27 26//26 25//25
f 28//28 26//26 27//27
f 31//31 29//29 30//30
f 32//32 31//31 30//30
f 35//35 33//33 34//34
f 35//35 34//34 36//36
f 38//38 37//37 39//39
f 38//38 39//39 40//40
f 41//41 38//38 40//40
f 47//47 43//43 48//48
f 44//44 46//46 45//45
f 44//44 47//47 46//46
f 42//42 47//47 44//44
f 42//42 43//43 47//47
f 49//49 51//51 52//52
f 49//49 52//52 50//50
f 57//57 56//56 55//55
f 53//53 57//57 55//55
f 58//58 57//57 53//53
f 54//54 60//60 59//59
f 54//54 58//58 53//53
f 54//54 59//59 58//58
f 64//64 62//62 61//61
f 64//64 61//61 63//63
