# ICROS2025 material234
v 1541.122802734375 -5700.63623046875 20.000167846679688
v 1541.122802734375 -5700.63623046875 36.00016784667969
v 1541.122802734375 -7500.63623046875 20.000167846679688
v 1541.122802734375 -7500.63623046875 36.00016784667969
v 2441.122802734375 -7500.63623046875 36.00016784667969
v 1541.122802734375 -7500.63623046875 36.00016784667969
v 2441.122802734375 -7500.63623046875 20.000167846679688
v 1541.122802734375 -7500.63623046875 20.000167846679688
v 2441.122802734375 -7500.63623046875 20.000167846679688
v 2441.122802734375 -7500.63623046875 36.00016784667969
v 2441.122802734375 -5700.63623046875 20.000167846679688
v 2441.122802734375 -5700.63623046875 36.00016784667969
v 1541.122802734375 -5700.63623046875 36.00016784667969
v 2441.122802734375 -5700.63623046875 36.00016784667969
v 1541.122802734375 -5700.63623046875 20.000167846679688
v 2441.122802734375 -5700.63623046875 20.000167846679688
v 1541.122802734375 -5700.63623046875 20.000167846679688
v 1541.122802734375 -7500.63623046875 20.000167846679688
v 2441.122802734375 -7500.63623046875 20.000167846679688
v 2441.122802734375 -5700.63623046875 20.000167846679688
v 1541.122802734375 -5700.63623046875 36.00016784667969
v 1541.122802734375 -7500.63623046875 36.00016784667969
v 2441.122802734375 -7500.63623046875 36.00016784667969
v 2441.122802734375 -5700.63623046875 36.00016784667969
vn -1.0 -1.5154879499422263e-15 0.0
vn -1.0 -1.5154879499422263e-15 0.0
vn -1.0 -1.5154879499422263e-15 0.0
vn -1.0 -1.5154879499422263e-15 0.0
vn 2.5260377489277723e-15 -1.0 -8.832850971289473e-17
vn 2.5260377489277723e-15 -1.0 -8.832850971289473e-17
vn 2.5260377489277723e-15 -1.0 -8.832850971289473e-17
vn 2.5260377489277723e-15 -1.0 -8.832850971289473e-17
vn 1.0 1.5154879499422263e-15 0.0
vn 1.0 1.5154879499422263e-15 0.0
vn 1.0 1.5154879499422263e-15 0.0
vn 1.0 1.5154879499422263e-15 0.0
vn -1.5154879499422263e-15 1.0 8.832850971289473e-17
vn -1.5154879499422263e-15 1.0 8.832850971289473e-17
vn -1.5154879499422263e-15 1.0 8.832850971289473e-17
vn -1.5154879499422263e-15 1.0 8.832850971289473e-17
vn -2.9911638434573544e-33 9.030224206378506e-17 -1.0
vn -3.988439842712544e-33 9.030224206378506e-17 -1.0
vn -4.985716025638726e-33 9.030224206378506e-17 -1.0
vn -3.988439842712544e-33 9.030224206378506e-17 -1.0
vn 5.982327686914709e-33 -9.227596779723049e-17 1.0
vn 7.976879685425088e-33 -9.227596779723049e-17 1.0
vn 9.971432051277452e-33 -9.227596779723049e-17 1.0
vn 7.976879685425088e-33 -9.227596779723049e-17 1.0
f 4//4 2//2 1//1
f 4//4 1//1 3//3
f 6//6 7//7 5//5
f 6//6 8//8 7//7
f 12//12 10//10 9//9
f 12//12 9//9 11//11
f 16//16 15//15 13//13
f 14//14 16//16 13//13
f 20//20 18//18 17//17
f 20//20 19//19 18//18
f 24//24 21//21 22//22
f 24//24 22//22 23//23
