# ICROS2025 material256
v -3436.877197265625 531.3637084960938 820.0
v -3436.877197265625 -7500.63623046875 820.0
v -3404.877197265625 531.3637084960938 820.0
v -3404.877197265625 -7500.63623046875 820.0
v -3436.877197265625 531.3637084960938 820.0
v -3436.877197265625 -7500.63623046875 820.0
v -3436.877197265625 531.3637084960938 20.0
v -3436.877197265625 -7500.63623046875 20.0
v -3436.877197265625 531.3637084960938 20.0
v -3436.877197265625 531.3637084960938 820.0
v -3404.877197265625 531.3637084960938 20.0
v -3404.877197265625 531.3637084960938 820.0
v -3404.877197265625 -6600.63623046875 20.000167846679688
v -3404.877197265625 -6600.63623046875 470.0001525878906
v -3404.877197265625 -7500.63623046875 470.0001525878906
v -3404.877197265625 -7500.63623046875 820.0
v -3404.877197265625 531.3637084960938 820.0
v -3404.877197265625 531.3637084960938 20.0
v -3436.877197265625 -7500.63623046875 20.0
v -3436.877197265625 531.3637084960938 20.0
v -3404.877197265625 -7500.63623046875 20.0
v -3404.877197265625 -6600.63623046875 20.000167846679688
v -3404.877197265625 531.3637084960938 20.0
v -3404.877197265625 -6600.63623046875 470.0001525878906
v -3404.877197265625 -7500.63623046875 470.0001525878906
v -2504.877197265625 -7500.63623046875 470.0001525878906
v -2504.877197265625 -6600.63623046875 470.0001525878906
v -2504.877197265625 -7500.63623046875 20.000167846679688
v -2504.877197265625 -7500.63623046875 470.0001525878906
v -2504.877197265625 -6600.63623046875 20.000167846679688
v -2504.877197265625 -6600.63623046875 470.0001525878906
v -3404.877197265625 -7500.63623046875 20.0
v -3404.877197265625 -6600.63623046875 20.000167846679688
v -2504.877197265625 -7500.63623046875 20.000167846679688
v -2504.877197265625 -6600.63623046875 20.000167846679688
v -3404.877197265625 -6600.63623046875 470.0001525878906
v -2504.877197265625 -6600.63623046875 470.0001525878906
v -3404.877197265625 -6600.63623046875 20.000167846679688
v -2504.877197265625 -6600.63623046875 20.000167846679688
v -3404.877197265625 -7500.63623046875 20.0
v -3436.877197265625 -7500.63623046875 20.0
v -3436.877197265625 -7500.63623046875 820.0
v -3404.877197265625 -7500.63623046875 820.0
v -3404.877197265625 -7500.63623046875 470.0001525878906
v -2504.877197265625 -7500.63623046875 470.0001525878906
v -2504.877197265625 -7500.63623046875 20.000167846679688
vn 0.0 8.622804005727148e-17 1.0
vn 0.0 8.622804005727148e-17 1.0
vn 0.0 8.622804005727148e-17 1.0
vn 0.0 8.622804005727148e-17 1.0
vn -1.0 2.3574703292452636e-18 0.0
vn -1.0 2.3574703292452636e-18 0.0
vn -1.0 2.3574703292452636e-18 0.0
vn -1.0 2.3574703292452636e-18 0.0
vn 2.3574703292452636e-18 1.0 -8.622804005727148e-17
vn 2.3574703292452636e-18 1.0 -8.622804005727148e-17
vn 2.3574703292452636e-18 1.0 -8.622804005727148e-17
vn 2.3574703292452636e-18 1.0 -8.622804005727148e-17
vn 1.0 -2.3574703292452636e-18 0.0
vn 1.0 -2.3574703292452636e-18 0.0
vn 1.0 -2.3574703292452636e-18 0.0
vn 1.0 -2.3574703292452636e-18 0.0
vn 1.0 -2.3574703292452636e-18 0.0
vn 1.0 -2.3574703292452636e-18 0.0
vn 4.696933956386632e-06 1.871288546319469e-08 -0.9999999999889693
vn 2.7666194455272107e-06 -1.1022388335348858e-08 -0.9999999999961728
vn -1.77635683940022e-15 1.8571499538211038e-07 -0.9999999999999829
vn 2.6116172193635135e-06 -1.2515220168571967e-16 -0.9999999999965898
vn -5.524899515875316e-26 -2.3435712037667138e-08 -0.9999999999999998
vn 0.0 8.622804005727148e-17 1.0
vn 0.0 8.622804005727148e-17 1.0
vn 0.0 8.622804005727148e-17 1.0
vn 0.0 8.622804005727148e-17 1.0
vn 1.0 -2.3574703292452636e-18 0.0
vn 1.0 -2.3574703292452636e-18 0.0
vn 1.0 -2.3574703292452636e-18 0.0
vn 1.0 -2.3574703292452636e-18 0.0
vn 9.285749769105597e-08 9.285749769105597e-08 -0.9999999999999913
vn 4.378176051824277e-25 1.8571499538211038e-07 -0.9999999999999829
vn 1.8571499538211038e-07 -8.622804005727e-17 -0.9999999999999829
vn 9.285749769105597e-08 9.285749769105597e-08 -0.9999999999999913
vn 2.3574703292452636e-18 1.0 -8.622804005727148e-17
vn 2.3574703292452636e-18 1.0 -8.622804005727148e-17
vn 2.3574703292452636e-18 1.0 -8.622804005727148e-17
vn 2.3574703292452636e-18 1.0 -8.622804005727148e-17
vn -2.3574703292452636e-18 -1.0 8.622804005727148e-17
vn -2.3574703292452636e-18 -1.0 8.622804005727148e-17
vn -2.3574703292452636e-18 -1.0 8.622804005727148e-17
vn -2.3574703292452636e-18 -1.0 8.622804005727148e-17
vn -2.3574703292452636e-18 -1.0 8.622804005727148e-17
vn -2.3574703292452636e-18 -1.0 8.622804005727148e-17
vn -2.3574703292452636e-18 -1.0 8.622804005727148e-17
f 4//4 3//3 1//1
f 2//2 4//4 1//1
f 6//6 5//5 7//7
f 6//6 7//7 8//8
f 12//12 11//11 9//9
f 10//10 12//12 9//9
f 14//14 18//18 17//17
f 14//14 13//13 18//18
f 16//16 15//15 14//14
f 16//16 14//14 17//17
f 22//22 21//21 19//19
f 20//20 23//23 22//22
f 20//20 22//22 19//19
f 27//27 24//24 25//25
f 27//27 25//25 26//26
f 31//31 29//29 28//28
f 31//31 28//28 30//30
f 35//35 32//32 33//33
f 35//35 34//34 32//32
f 37//37 38//38 36//36
f 37//37 39//39 38//38
f 40//40 46//46 45//45
f 44//44 41//41 40//40
f 44//44 40//40 45//45
f 42//42 44//44 43//43
f 41//41 44//44 42//42
