# ICROS2025 material229
v 609.1227416992188 -6568.50634765625 36.0
v 609.1227416992188 -6568.50634765625 20.0
v 159.1227569580078 -6568.50634765625 36.0
v 159.1227569580078 -6568.50634765625 20.0
v 159.1227569580078 -5668.50634765625 20.0
v 159.1227569580078 -6568.50634765625 20.0
v 159.1227569580078 -5668.50634765625 36.0
v 159.1227569580078 -6568.50634765625 36.0
v 159.1227569580078 -5668.50634765625 36.0
v 159.1227569580078 -5668.50634765625 20.0
v 609.1227416992188 -5668.50634765625 36.0
v 609.1227416992188 -5668.50634765625 20.0
v 609.1227416992188 -6568.50634765625 20.0
v 609.1227416992188 -5668.50634765625 20.0
v 609.1227416992188 -6568.50634765625 36.0
v 609.1227416992188 -5668.50634765625 36.0
v 609.1227416992188 -6568.50634765625 36.0
v 159.1227569580078 -6568.50634765625 36.0
v 159.1227569580078 -5668.50634765625 36.0
v 609.1227416992188 -5668.50634765625 36.0
v 609.1227416992188 -6568.50634765625 20.0
v 159.1227569580078 -6568.50634765625 20.0
v 159.1227569580078 -5668.50634765625 20.0
v 609.1227416992188 -5668.50634765625 20.0
vn -1.4927908550876e-15 -1.0 -4.976766069830406e-18
vn -1.4927908550876e-15 -1.0 -4.976766069830406e-18
vn -1.4927908550876e-15 -1.0 -4.976766069830406e-18
vn -1.4927908550876e-15 -1.0 -4.976766069830406e-18
vn -1.0 1.4927908550876e-15 0.0
vn -1.0 1.4927908550876e-15 0.0
vn -1.0 1.4927908550876e-15 0.0
vn -1.0 1.4927908550876e-15 0.0
vn 2.503340654073146e-15 1.0 4.976766069830406e-18
vn 2.503340654073146e-15 1.0 4.976766069830406e-18
vn 2.503340654073146e-15 1.0 4.976766069830406e-18
vn 2.503340654073146e-15 1.0 4.976766069830406e-18
vn 1.0 -1.4927908550876e-15 0.0
vn 1.0 -1.4927908550876e-15 0.0
vn 1.0 -1.4927908550876e-15 0.0
vn 1.0 -1.4927908550876e-15 0.0
vn 0.0 -4.976766069830406e-18 1.0
vn 0.0 -4.976766069830406e-18 1.0
vn 0.0 -4.976766069830406e-18 1.0
vn 0.0 -4.976766069830406e-18 1.0
vn 0.0 4.976766069830406e-18 -1.0
vn 0.0 4.976766069830406e-18 -1.0
vn 0.0 4.976766069830406e-18 -1.0
vn 0.0 4.976766069830406e-18 -1.0
f 4//4 2//2 1//1
f 4//4 1//1 3//3
f 8//8 7//7 5//5
f 6//6 8//8 5//5
f 12//12 10//10 9//9
f 12//12 9//9 11//11
f 14//14 15//15 13//13
f 14//14 16//16 15//15
f 20//20 18//18 17//17
f 20//20 19//19 18//18
f 24//24 21//21 22//22
f 24//24 22//22 23//23
