# ICROS2025 material242
v -3404.877197265625 -5300.63623046875 20.000167846679688
v -3404.877197265625 -5300.63623046875 95.00016784667969
v -2504.877197265625 -5300.63623046875 20.000167846679688
v -2504.877197265625 -5300.63623046875 95.00016784667969
v -2504.877197265625 -4780.63623046875 95.00016784667969
v -2504.877197265625 -5300.63623046875 95.00016784667969
v -2504.877197265625 -4780.63623046875 20.000167846679688
v -2504.877197265625 -5300.63623046875 20.000167846679688
v -2504.877197265625 -4780.63623046875 20.000167846679688
v -2504.877197265625 -4780.63623046875 95.00016784667969
v -3404.877197265625 -4780.63623046875 20.000167846679688
v -3404.877197265625 -4780.63623046875 95.00016784667969
v -3404.877197265625 -5300.63623046875 95.00016784667969
v -3404.877197265625 -4780.63623046875 95.00016784667969
v -3404.877197265625 -5300.63623046875 20.000167846679688
v -3404.877197265625 -4780.63623046875 20.000167846679688
v -3404.877197265625 -5300.63623046875 20.000167846679688
v -2504.877197265625 -5300.63623046875 20.000167846679688
v -2504.877197265625 -4780.63623046875 20.000167846679688
v -3404.877197265625 -4780.63623046875 20.000167846679688
v -3404.877197265625 -5300.63623046875 95.00016784667969
v -2504.877197265625 -5300.63623046875 95.00016784667969
v -2504.877197265625 -4780.63623046875 95.00016784667969
v -3404.877197265625 -4780.63623046875 95.00016784667969
vn 1.332847618817208e-17 -1.0 8.644478123009507e-17
vn 1.332847618817208e-17 -1.0 8.644478123009507e-17
vn 1.332847618817208e-17 -1.0 8.644478123009507e-17
vn 1.332847618817208e-17 -1.0 8.644478123009507e-17
vn 1.0 1.332847618817208e-17 0.0
vn 1.0 1.332847618817208e-17 0.0
vn 1.0 1.332847618817208e-17 0.0
vn 1.0 1.332847618817208e-17 0.0
vn -1.332847618817208e-17 1.0 -8.644478123009507e-17
vn -1.332847618817208e-17 1.0 -8.644478123009507e-17
vn -1.332847618817208e-17 1.0 -8.644478123009507e-17
vn -1.332847618817208e-17 1.0 -8.644478123009507e-17
vn -1.0 -1.332847618817208e-17 0.0
vn -1.0 -1.332847618817208e-17 0.0
vn -1.0 -1.332847618817208e-17 0.0
vn -1.0 -1.332847618817208e-17 0.0
vn 9.106203465047457e-35 -9.327692251286866e-17 -1.0
vn 9.106203465047457e-35 -9.327692251286866e-17 -1.0
vn 9.106203465047457e-35 -9.327692251286866e-17 -1.0
vn 9.106203465047457e-35 -9.327692251286866e-17 -1.0
vn 3.642481386018983e-34 5.911621609900074e-17 1.0
vn 3.642481386018983e-34 5.911621609900074e-17 1.0
vn 3.642481386018983e-34 5.911621609900074e-17 1.0
vn 3.642481386018983e-34 5.911621609900074e-17 1.0
f 3//3 2//2 1//1
f 4//4 2//2 3//3
f 6//6 7//7 5//5
f 6//6 8//8 7//7
f 11//11 10//10 9//9
f 12//12 10//10 11//11
f 14//14 15//15 13//13
f 14//14 16//16 15//15
f 20//20 18//18 17//17
f 20//20 19//19 18//18
f 24//24 21//21 22//22
f 24//24 22//22 23//23
