# ICROS2025 material236
v -1540.877197265625 -5636.50634765625 820.0
v -1540.877197265625 -5636.50634765625 20.0
v 577.1227416992188 -5636.50634765625 820.0
v 577.1227416992188 -5636.50634765625 20.0
v -1540.877197265625 531.3637084960938 20.0
v -1540.877197265625 -5636.50634765625 20.0
v -1540.877197265625 531.3637084960938 820.0
v -1540.877197265625 -5636.50634765625 820.0
v -1572.877197265625 531.3637084960938 20.0
v -1540.877197265625 531.3637084960938 20.0
v -1572.877197265625 531.3637084960938 820.0
v -1540.877197265625 531.3637084960938 820.0
v -2472.877197265625 -5668.50634765625 320.0
v -1572.877197265625 -5668.50634765625 320.0
v -1572.877197265625 -5408.50634765625 320.0
v -2472.877197265625 -5408.50634765625 320.0
v -2472.877197265625 -5668.50634765625 320.0
v -2472.877197265625 -5408.50634765625 320.0
v -2472.877197265625 -5668.50634765625 170.0
v -2472.877197265625 -5408.50634765625 170.0
v -2472.877197265625 -5668.50634765625 170.0
v -1572.877197265625 -5668.50634765625 170.0
v -1572.877197265625 -5408.50634765625 170.0
v -2472.877197265625 -5408.50634765625 170.0
v -1572.877197265625 -5408.50634765625 170.0
v -1572.877197265625 -5408.50634765625 320.0
v -2472.877197265625 -5408.50634765625 170.0
v -2472.877197265625 -5408.50634765625 320.0
v 577.1227416992188 -5636.50634765625 20.0
v -1540.877197265625 -5636.50634765625 20.0
v -1540.877197265625 531.3637084960938 20.0
v -1572.877197265625 531.3637084960938 20.0
v -1572.877197265625 -5668.50634765625 20.0
v 577.1227416992188 -5668.50634765625 20.0
v -1572.877197265625 -5668.50634765625 820.0
v -1572.877197265625 -5668.50634765625 320.0
v -2472.877197265625 -5668.50634765625 320.0
v -2472.877197265625 -5668.50634765625 170.0
v -1572.877197265625 -5668.50634765625 170.0
v -1572.877197265625 -5668.50634765625 20.0
v 577.1227416992188 -5668.50634765625 20.0
v 577.1227416992188 -5668.50634765625 820.0
v -1572.877197265625 -5668.50634765625 820.0
v -1572.877197265625 531.3637084960938 820.0
v -1540.877197265625 531.3637084960938 820.0
v -1540.877197265625 -5636.50634765625 820.0
v 577.1227416992188 -5636.50634765625 820.0
v 577.1227416992188 -5668.50634765625 820.0
v 577.1227416992188 -5636.50634765625 20.0
v 577.1227416992188 -5636.50634765625 820.0
v 577.1227416992188 -5668.50634765625 20.0
v 577.1227416992188 -5668.50634765625 820.0
v -1572.877197265625 -5668.50634765625 820.0
v -1572.877197265625 -5668.50634765625 320.0
v -1572.877197265625 531.3637084960938 820.0
v -1572.877197265625 531.3637084960938 20.0
v -1572.877197265625 -5668.50634765625 20.0
v -1572.877197265625 -5668.50634765625 170.0
v -1572.877197265625 -5408.50634765625 170.0
v -1572.877197265625 -5408.50634765625 320.0
vn 7.230272178971524e-16 1.0 9.000576332688932e-16
vn 9.377332352462908e-16 1.0 1.4684918091714791e-15
vn 5.083212005480139e-16 1.0 3.3162348383608683e-16
vn 7.230272178971524e-16 1.0 9.000576332688932e-16
vn 1.0 -5.083212005480139e-16 0.0
vn 1.0 -5.083212005480139e-16 0.0
vn 1.0 -5.083212005480139e-16 0.0
vn 1.0 -5.083212005480139e-16 0.0
vn 5.083212005480139e-16 1.0 3.3162348383608683e-16
vn 5.083212005480139e-16 1.0 3.3162348383608683e-16
vn 5.083212005480139e-16 1.0 3.3162348383608683e-16
vn 5.083212005480139e-16 1.0 3.3162348383608683e-16
vn 0.0 -3.3162348383608683e-16 1.0
vn 0.0 -3.3162348383608683e-16 1.0
vn 0.0 -3.3162348383608683e-16 1.0
vn 0.0 -3.3162348383608683e-16 1.0
vn -1.0 5.083212005480139e-16 0.0
vn -1.0 5.083212005480139e-16 0.0
vn -1.0 5.083212005480139e-16 0.0
vn -1.0 5.083212005480139e-16 0.0
vn 0.0 3.3162348383608683e-16 -1.0
vn 0.0 3.3162348383608683e-16 -1.0
vn 0.0 3.3162348383608683e-16 -1.0
vn 0.0 3.3162348383608683e-16 -1.0
vn 1.5188708936544415e-15 1.0 3.3162348383608683e-16
vn 1.5188708936544415e-15 1.0 3.3162348383608683e-16
vn 1.5188708936544415e-15 1.0 3.3162348383608683e-16
vn 1.5188708936544415e-15 1.0 3.3162348383608683e-16
vn 0.0 3.3162348383608683e-16 -1.0
vn 0.0 3.3162348383608683e-16 -1.0
vn 0.0 3.3162348383608683e-16 -1.0
vn 0.0 3.3162348383608683e-16 -1.0
vn 0.0 3.3162348383608683e-16 -1.0
vn 0.0 3.3162348383608683e-16 -1.0
vn -1.1506862120319681e-14 -1.0 -3.3162348383608683e-16
vn -8.616584110446562e-15 -1.0 -3.3162348383608683e-16
vn 2.4755420491837966e-14 -1.0 -3.3162348383608683e-16
vn 2.4755420491837966e-14 -1.0 -3.3162348383608683e-16
vn -5.2306978057725315e-15 -1.0 -3.3162348383608683e-16
vn -1.1506862120319681e-14 -1.0 -3.3162348383608683e-16
vn -1.1506862120319681e-14 -1.0 -3.3162348383608683e-16
vn -1.1506862120319681e-14 -1.0 -3.3162348383608683e-16
vn 2.6243134760835316e-15 5.967767453506621e-16 1.0
vn 1.7717607327493302e-15 -3.2243127053424635e-16 1.0
vn 0.0 -3.3162348383608683e-16 1.0
vn 1.3172047367700462e-15 5.866806420149829e-16 1.0
vn 1.8059196824112217e-30 3.2210901155550753e-15 1.0
vn 2.1489735463427676e-29 3.2210901155550753e-15 1.0
vn 1.0 -5.083212005480139e-16 0.0
vn 1.0 -5.083212005480139e-16 0.0
vn 1.0 -5.083212005480139e-16 0.0
vn 1.0 -5.083212005480139e-16 0.0
vn -1.0 4.731233287600127e-16 4.3644447280329654e-16
vn -1.0 -3.6619296305634376e-16 -2.900094086360008e-31
vn -1.0 5.314876045949782e-16 1.7953612411817624e-16
vn -1.0 5.4118438483558625e-16 -2.144710054109448e-16
vn -1.0 4.731233287600127e-16 -1.4548148740512823e-15
vn -1.0 -3.6619296305634376e-16 -2.900094086360008e-31
vn -1.0 5.083212005480139e-16 -7.579122698298207e-16
vn -1.0 5.198528129710524e-16 1.5887717582310106e-16
f 1//1 3//3 4//4
f 1//1 4//4 2//2
f 7//7 6//6 5//5
f 7//7 8//8 6//6
f 12//12 10//10 9//9
f 12//12 9//9 11//11
f 16//16 13//13 14//14
f 16//16 14//14 15//15
f 18//18 19//19 17//17
f 18//18 20//20 19//19
f 24//24 22//22 21//21
f 24//24 23//23 22//22
f 28//28 26//26 25//25
f 28//28 25//25 27//27
f 30//30 32//32 31//31
f 30//30 33//33 32//32
f 34//34 30//30 29//29
f 34//34 33//33 30//30
f 36//36 37//37 38//38
f 36//36 38//38 39//39
f 41//41 39//39 40//40
f 41//41 36//36 39//39
f 42//42 35//35 36//36
f 42//42 36//36 41//41
f 48//48 46//46 43//43
f 47//47 46//46 48//48
f 44//44 43//43 46//46
f 45//45 44//44 46//46
f 50//50 51//51 49//49
f 50//50 52//52 51//51
f 57//57 59//59 56//56
f 60//60 55//55 56//56
f 60//60 56//56 59//59
f 58//58 59//59 57//57
f 53//53 60//60 54//54
f 53//53 55//55 60//60
