# ICROS2025 material222
v 1546.122802734375 -5250.63623046875 52.53016662597656
v 1546.122802734375 -4350.63623046875 52.53016662597656
v 1546.122802734375 -5250.63623046875 20.000167846679688
v 1546.122802734375 -4350.63623046875 20.000167846679688
v 2441.122802734375 -5250.63623046875 285.5301818847656
v 2441.122802734375 -4350.63623046875 285.5301818847656
v 1546.122802734375 -5250.63623046875 52.53016662597656
v 1546.122802734375 -4350.63623046875 52.53016662597656
v 2441.122802734375 -4350.63623046875 285.5301818847656
v 2441.122802734375 -4350.63623046875 20.000167846679688
v 1546.122802734375 -4350.63623046875 20.000167846679688
v 1546.122802734375 -4350.63623046875 52.53016662597656
v 1546.122802734375 -5250.63623046875 20.000167846679688
v 1546.122802734375 -5250.63623046875 52.53016662597656
v 2441.122802734375 -5250.63623046875 20.000167846679688
v 2441.122802734375 -5250.63623046875 285.5301818847656
v 2441.122802734375 -5250.63623046875 285.5301818847656
v 2441.122802734375 -4350.63623046875 285.5301818847656
v 2441.122802734375 -4350.63623046875 20.000167846679688
v 2441.122802734375 -5250.63623046875 20.000167846679688
v 2441.122802734375 -4350.63623046875 20.000167846679688
v 1546.122802734375 -4350.63623046875 20.000167846679688
v 1546.122802734375 -5250.63623046875 20.000167846679688
v 2441.122802734375 -5250.63623046875 20.000167846679688
vn -1.0 -1.5195340145730232e-15 0.0
vn -1.0 -1.5195340145730232e-15 0.0
vn -1.0 -1.5195340145730232e-15 0.0
vn -1.0 -1.5195340145730232e-15 0.0
vn -0.251937687942994 -3.929194209623599e-16 0.9677434584609387
vn -0.251937687942994 -4.278853381474884e-16 0.9677434584609387
vn -0.251937687942994 -4.278853381474884e-16 0.9677434584609387
vn -0.251937687942994 -4.628512553326169e-16 0.9677434584609387
vn -1.5195340145730232e-15 1.0 8.269065841597011e-17
vn -1.5195340145730232e-15 1.0 8.269065841597011e-17
vn -1.5195340145730232e-15 1.0 8.269065841597011e-17
vn -1.5195340145730232e-15 1.0 8.269065841597011e-17
vn 1.5195340145730232e-15 -1.0 -8.269065841597011e-17
vn 1.5195340145730232e-15 -1.0 -8.269065841597011e-17
vn 1.5195340145730232e-15 -1.0 -8.269065841597011e-17
vn 1.5195340145730232e-15 -1.0 -8.269065841597011e-17
vn 1.0 1.5195340145730232e-15 0.0
vn 1.0 1.5195340145730232e-15 0.0
vn 1.0 1.5195340145730232e-15 0.0
vn 1.0 1.5195340145730232e-15 0.0
vn 0.0 8.269065841597011e-17 -1.0
vn 0.0 8.269065841597011e-17 -1.0
vn 0.0 8.269065841597011e-17 -1.0
vn 0.0 8.269065841597011e-17 -1.0
f 2//2 3//3 1//1
f 2//2 4//4 3//3
f 7//7 5//5 6//6
f 8//8 7//7 6//6
f 12//12 9//9 10//10
f 12//12 10//10 11//11
f 15//15 14//14 13//13
f 16//16 14//14 15//15
f 17//17 19//19 18//18
f 17//17 20//20 19//19
f 23//23 22//22 21//21
f 24//24 23//23 21//21
