# ICROS2025 material215
v 1991.122802734375 -1200.6363525390625 96.00016784667969
v 1541.122802734375 -1200.6363525390625 96.00016784667969
v 1991.122802734375 -1200.6363525390625 112.00016784667969
v 1541.122802734375 -1200.6363525390625 112.00016784667969
v 1991.122802734375 -1200.6363525390625 112.00016784667969
v 1991.122802734375 -1200.6363525390625 96.00016784667969
v 2441.122802734375 -2550.63623046875 112.00016784667969
v 2441.122802734375 -2550.63623046875 96.00016784667969
v 2441.122802734375 -2550.63623046875 112.00016784667969
v 2441.122802734375 -2550.63623046875 96.00016784667969
v 2441.122802734375 -3000.63623046875 112.00016784667969
v 2441.122802734375 -3000.63623046875 96.00016784667969
v 1991.122802734375 -3000.63623046875 96.00016784667969
v 2441.122802734375 -3000.63623046875 96.00016784667969
v 1991.122802734375 -3000.63623046875 112.00016784667969
v 2441.122802734375 -3000.63623046875 112.00016784667969
v 1541.122802734375 -1650.6363525390625 96.00016784667969
v 1991.122802734375 -3000.63623046875 96.00016784667969
v 1541.122802734375 -1650.6363525390625 112.00016784667969
v 1991.122802734375 -3000.63623046875 112.00016784667969
v 1541.122802734375 -1650.6363525390625 112.00016784667969
v 1541.122802734375 -1650.6363525390625 96.00016784667969
v 1541.122802734375 -1200.6363525390625 112.00016784667969
v 1541.122802734375 -1200.6363525390625 96.00016784667969
v 1991.122802734375 -1200.6363525390625 112.00016784667969
v 1541.122802734375 -1200.6363525390625 112.00016784667969
v 2441.122802734375 -2550.63623046875 112.00016784667969
v 2441.122802734375 -3000.63623046875 112.00016784667969
v 1991.122802734375 -3000.63623046875 112.00016784667969
v 1541.122802734375 -1650.6363525390625 112.00016784667969
v 1991.122802734375 -1200.6363525390625 96.00016784667969
v 1541.122802734375 -1200.6363525390625 96.00016784667969
v 2441.122802734375 -2550.63623046875 96.00016784667969
v 2441.122802734375 -3000.63623046875 96.00016784667969
v 1991.122802734375 -3000.63623046875 96.00016784667969
v 1541.122802734375 -1650.6363525390625 96.00016784667969
vn -1.50735410430798e-15 1.0 -4.783414090571238e-17
vn -1.50735410430798e-15 1.0 -4.783414090571238e-17
vn -1.50735410430798e-15 1.0 -4.783414090571238e-17
vn -1.50735410430798e-15 1.0 -4.783414090571238e-17
vn 0.9486832920900493 0.31622778389823075 -1.5126484302723162e-17
vn 0.9486832920900493 0.31622778389823075 -1.5126484302723162e-17
vn 0.9486832920900493 0.31622778389823075 -1.5126484302723162e-17
vn 0.9486832920900493 0.31622778389823075 -1.5126484302723162e-17
vn 1.0 1.50735410430798e-15 0.0
vn 1.0 1.50735410430798e-15 0.0
vn 1.0 1.50735410430798e-15 0.0
vn 1.0 1.50735410430798e-15 0.0
vn 1.50735410430798e-15 -1.0 4.783414090571238e-17
vn 1.50735410430798e-15 -1.0 4.783414090571238e-17
vn 1.50735410430798e-15 -1.0 4.783414090571238e-17
vn 1.50735410430798e-15 -1.0 4.783414090571238e-17
vn -0.9486832920900493 -0.31622778389823075 1.5126484302723162e-17
vn -0.9486832920900493 -0.31622778389823075 1.5126484302723162e-17
vn -0.9486832920900493 -0.31622778389823075 1.5126484302723162e-17
vn -0.9486832920900493 -0.31622778389823075 1.5126484302723162e-17
vn -1.0 -1.50735410430798e-15 0.0
vn -1.0 -1.50735410430798e-15 0.0
vn -1.0 -1.50735410430798e-15 0.0
vn -1.0 -1.50735410430798e-15 0.0
vn 0.0 4.783414090571238e-17 1.0
vn 0.0 4.783414090571238e-17 1.0
vn 0.0 4.783414090571238e-17 1.0
vn 0.0 4.783414090571238e-17 1.0
vn 0.0 4.783414090571238e-17 1.0
vn 0.0 4.783414090571238e-17 1.0
vn -6.3159354991971114e-18 -4.151820664728619e-17 -1.0
vn 0.0 -4.783414090571238e-17 -1.0
vn -1.403541203662011e-17 -5.134299474204802e-17 -1.0
vn 4.760175540851186e-32 -7.941381881528824e-17 -1.0
vn -1.8947807738362253e-17 -6.046600942256477e-17 -1.0
vn -1.403541203662011e-17 -4.783414090571238e-17 -1.0
f 2//2 3//3 1//1
f 2//2 4//4 3//3
f 8//8 6//6 5//5
f 8//8 5//5 7//7
f 12//12 10//10 9//9
f 12//12 9//9 11//11
f 14//14 15//15 13//13
f 14//14 16//16 15//15
f 18//18 19//19 17//17
f 18//18 20//20 19//19
f 24//24 22//22 21//21
f 24//24 21//21 23//23
f 29//29 28//28 27//27
f 30//30 29//29 27//27
f 25//25 30//30 27//27
f 26//26 30//30 25//25
f 35//35 33//33 34//34
f 36//36 33//33 35//35
f 31//31 33//33 36//36
f 32//32 31//31 36//36
