# ICROS2025 material224
v 1509.122802734375 -3557.50634765625 52.529998779296875
v 1509.122802734375 -4457.50634765625 52.529998779296875
v 1509.122802734375 -3557.50634765625 20.0
v 1509.122802734375 -4457.50634765625 20.0
v 614.1227416992188 -3557.50634765625 285.5299987792969
v 614.1227416992188 -4457.50634765625 285.5299987792969
v 1509.122802734375 -3557.50634765625 52.529998779296875
v 1509.122802734375 -4457.50634765625 52.529998779296875
v 614.1227416992188 -4457.50634765625 285.5299987792969
v 614.1227416992188 -4457.50634765625 20.0
v 1509.122802734375 -4457.50634765625 20.0
v 1509.122802734375 -4457.50634765625 52.529998779296875
v 1509.122802734375 -3557.50634765625 20.0
v 1509.122802734375 -3557.50634765625 52.529998779296875
v 614.1227416992188 -3557.50634765625 20.0
v 614.1227416992188 -3557.50634765625 285.5299987792969
v 614.1227416992188 -3557.50634765625 285.5299987792969
v 614.1227416992188 -4457.50634765625 285.5299987792969
v 614.1227416992188 -4457.50634765625 20.0
v 614.1227416992188 -3557.50634765625 20.0
v 614.1227416992188 -4457.50634765625 20.0
v 1509.122802734375 -4457.50634765625 20.0
v 1509.122802734375 -3557.50634765625 20.0
v 614.1227416992188 -3557.50634765625 20.0
vn 1.0 -1.5103130021509761e-15 0.0
vn 1.0 -1.5103130021509761e-15 0.0
vn 1.0 -1.5103130021509761e-15 0.0
vn 1.0 -1.5103130021509761e-15 0.0
vn 0.251937687942994 -4.571188010309726e-16 0.9677434584609387
vn 0.251937687942994 -4.2215288384584412e-16 0.9677434584609387
vn 0.251937687942994 -4.2215288384584412e-16 0.9677434584609387
vn 0.251937687942994 -3.8718696666071564e-16 0.9677434584609387
vn -1.5103130021509761e-15 -1.0 -6.904926559233351e-18
vn -1.5103130021509761e-15 -1.0 -6.904926559233351e-18
vn -1.5103130021509761e-15 -1.0 -6.904926559233351e-18
vn -1.5103130021509761e-15 -1.0 -6.904926559233351e-18
vn 1.5103130021509761e-15 1.0 6.904926559233351e-18
vn 1.5103130021509761e-15 1.0 6.904926559233351e-18
vn 1.5103130021509761e-15 1.0 6.904926559233351e-18
vn 1.5103130021509761e-15 1.0 6.904926559233351e-18
vn -1.0 1.5103130021509761e-15 0.0
vn -1.0 1.5103130021509761e-15 0.0
vn -1.0 1.5103130021509761e-15 0.0
vn -1.0 1.5103130021509761e-15 0.0
vn 0.0 6.904926559233351e-18 -1.0
vn 0.0 6.904926559233351e-18 -1.0
vn 0.0 6.904926559233351e-18 -1.0
vn 0.0 6.904926559233351e-18 -1.0
f 2//2 3//3 1//1
f 2//2 4//4 3//3
f 7//7 5//5 6//6
f 8//8 7//7 6//6
f 12//12 9//9 10//10
f 12//12 10//10 11//11
f 15//15 14//14 13//13
f 16//16 14//14 15//15
f 17//17 19//19 18//18
f 17//17 20//20 19//19
f 23//23 22//22 21//21
f 24//24 23//23 21//21
