# ICROS2025 material214
v 3925.122802734375 -7532.63623046875 2.567884765310278e-26
v 3925.122802734375 -7532.63623046875 20.0
v 3925.122802734375 1560.3636474609375 -3.0136008064098717e-27
v 3925.122802734375 1560.3636474609375 20.0
v -4920.87744140625 1560.3636474609375 20.0
v 3925.122802734375 1560.3636474609375 20.0
v -4920.87744140625 1560.3636474609375 -2.919029942420681e-27
v 3925.122802734375 1560.3636474609375 -3.0136008064098717e-27
v -4920.87744140625 1560.3636474609375 -2.919029942420681e-27
v -4920.87744140625 1560.3636474609375 20.0
v -4920.87744140625 -7532.63623046875 2.5773418517091972e-26
v -4920.87744140625 -7532.63623046875 20.0
v 3925.122802734375 -7532.63623046875 20.0
v -4920.87744140625 -7532.63623046875 20.0
v 3925.122802734375 -7532.63623046875 2.567884765310278e-26
v -4920.87744140625 -7532.63623046875 2.5773418517091972e-26
v 3925.122802734375 -7532.63623046875 2.567884765310278e-26
v 3925.122802734375 1560.3636474609375 -3.0136008064098717e-27
v -4920.87744140625 1560.3636474609375 -2.919029942420681e-27
v -4920.87744140625 -7532.63623046875 2.5773418517091972e-26
v 3925.122802734375 -7532.63623046875 20.0
v 3925.122802734375 1560.3636474609375 20.0
v -4920.87744140625 1560.3636474609375 20.0
v -4920.87744140625 -7532.63623046875 20.0
vn 1.0 1.5031670086914652e-15 -1.0690791247626505e-32
vn 1.0 1.5031670086914652e-15 -1.0690791247626505e-32
vn 1.0 1.5031670086914652e-15 -1.0690791247626505e-32
vn 1.0 1.5031670086914652e-15 -1.0690791247626505e-32
vn -1.5031670086914652e-15 1.0 -3.1554436208840472e-30
vn -1.5031670086914652e-15 1.0 -3.1554436208840472e-30
vn -1.5031670086914652e-15 1.0 -3.1554436208840472e-30
vn -1.5031670086914652e-15 1.0 -3.1554436208840472e-30
vn -1.0 -1.6031884707515156e-15 1.0690791247626505e-32
vn -1.0 -1.6031884707515156e-15 1.0690791247626505e-32
vn -1.0 -1.6031884707515156e-15 1.0690791247626505e-32
vn -1.0 -1.6031884707515156e-15 1.0690791247626505e-32
vn 1.6059812442577315e-15 -1.0 3.1554436208840472e-30
vn 1.6059812442577315e-15 -1.0 3.1554436208840472e-30
vn 1.6059812442577315e-15 -1.0 3.1554436208840472e-30
vn 1.6059812442577315e-15 -1.0 3.1554436208840472e-30
vn -1.0690791247626505e-32 -3.1554436208840472e-30 -1.0
vn -1.0690791247626505e-32 -3.1554436208840472e-30 -1.0
vn -1.0690791247626505e-32 -3.1554436208840472e-30 -1.0
vn -1.0690791247626505e-32 -3.1554436208840472e-30 -1.0
vn 1.0690791247626505e-32 3.1554436208840472e-30 1.0
vn 1.0690791247626505e-32 3.1554436208840472e-30 1.0
vn 1.0690791247626505e-32 3.1554436208840472e-30 1.0
vn 1.0690791247626505e-32 3.1554436208840472e-30 1.0
f 4//4 2//2 1//1
f 4//4 1//1 3//3
f 8//8 7//7 5//5
f 6//6 8//8 5//5
f 11//11 10//10 9//9
f 12//12 10//10 11//11
f 14//14 15//15 13//13
f 14//14 16//16 15//15
f 24//24 21//21 22//22
f 24//24 22//22 23//23
