# ICROS2025 material253
v -3404.877197265625 -6600.63623046875 170.0001678466797
v -3404.877197265625 -6600.63623046875 245.0001678466797
v -2504.877197265625 -6600.63623046875 170.0001678466797
v -2504.877197265625 -6600.63623046875 245.0001678466797
v -2504.877197265625 -6340.63623046875 245.0001678466797
v -2504.877197265625 -6600.63623046875 245.0001678466797
v -2504.877197265625 -6340.63623046875 170.0001678466797
v -2504.877197265625 -6600.63623046875 170.0001678466797
v -2504.877197265625 -6340.63623046875 170.0001678466797
v -2504.877197265625 -6340.63623046875 245.0001678466797
v -3404.877197265625 -6340.63623046875 170.0001678466797
v -3404.877197265625 -6340.63623046875 245.0001678466797
v -3404.877197265625 -6600.63623046875 245.0001678466797
v -3404.877197265625 -6340.63623046875 245.0001678466797
v -3404.877197265625 -6600.63623046875 170.0001678466797
v -3404.877197265625 -6340.63623046875 170.0001678466797
v -3404.877197265625 -6600.63623046875 170.0001678466797
v -2504.877197265625 -6600.63623046875 170.0001678466797
v -2504.877197265625 -6340.63623046875 170.0001678466797
v -3404.877197265625 -6340.63623046875 170.0001678466797
v -3404.877197265625 -6600.63623046875 245.0001678466797
v -2504.877197265625 -6600.63623046875 245.0001678466797
v -2504.877197265625 -6340.63623046875 245.0001678466797
v -3404.877197265625 -6340.63623046875 245.0001678466797
vn 1.332847618817208e-17 -1.0 8.644478123009507e-17
vn 1.332847618817208e-17 -1.0 8.644478123009507e-17
vn 1.332847618817208e-17 -1.0 8.644478123009507e-17
vn 1.332847618817208e-17 -1.0 8.644478123009507e-17
vn 1.0 1.332847618817208e-17 0.0
vn 1.0 1.332847618817208e-17 0.0
vn 1.0 1.332847618817208e-17 0.0
vn 1.0 1.332847618817208e-17 0.0
vn -1.332847618817208e-17 1.0 -8.644478123009507e-17
vn -1.332847618817208e-17 1.0 -8.644478123009507e-17
vn -1.332847618817208e-17 1.0 -8.644478123009507e-17
vn -1.332847618817208e-17 1.0 -8.644478123009507e-17
vn -1.0 -1.332847618817208e-17 0.0
vn -1.0 -1.332847618817208e-17 0.0
vn -1.0 -1.332847618817208e-17 0.0
vn -1.0 -1.332847618817208e-17 0.0
vn 0.0 -8.644478123009507e-17 -1.0
vn 0.0 -8.644478123009507e-17 -1.0
vn 0.0 -8.644478123009507e-17 -1.0
vn 0.0 -8.644478123009507e-17 -1.0
vn 0.0 8.644478123009507e-17 1.0
vn 0.0 8.644478123009507e-17 1.0
vn 0.0 8.644478123009507e-17 1.0
vn 0.0 8.644478123009507e-17 1.0
f 3//3 2//2 1//1
f 4//4 2//2 3//3
f 6//6 7//7 5//5
f 6//6 8//8 7//7
f 11//11 10//10 9//9
f 12//12 10//10 11//11
f 14//14 15//15 13//13
f 14//14 16//16 15//15
f 20//20 18//18 17//17
f 20//20 19//19 18//18
f 24//24 21//21 22//22
f 24//24 22//22 23//23
