# ICROS2025 material259
v -3404.877197265625 -4178.50634765625 20.000167846679688
v -3404.877197265625 -4178.50634765625 95.00016784667969
v -2504.877197265625 -4178.50634765625 20.000167846679688
v -2504.877197265625 -4178.50634765625 95.00016784667969
v -2504.877197265625 -3658.50634765625 95.00016784667969
v -2504.877197265625 -4178.50634765625 95.00016784667969
v -2504.877197265625 -3658.50634765625 20.000167846679688
v -2504.877197265625 -4178.50634765625 20.000167846679688
v -2504.877197265625 -3658.50634765625 20.000167846679688
v -2504.877197265625 -3658.50634765625 95.00016784667969
v -3404.877197265625 -3658.50634765625 20.000167846679688
v -3404.877197265625 -3658.50634765625 95.00016784667969
v -3404.877197265625 -4178.50634765625 95.00016784667969
v -3404.877197265625 -3658.50634765625 95.00016784667969
v -3404.877197265625 -4178.50634765625 20.000167846679688
v -3404.877197265625 -3658.50634765625 20.000167846679688
v -3404.877197265625 -4178.50634765625 20.000167846679688
v -2504.877197265625 -4178.50634765625 20.000167846679688
v -2504.877197265625 -3658.50634765625 20.000167846679688
v -3404.877197265625 -3658.50634765625 20.000167846679688
v -3404.877197265625 -4178.50634765625 95.00016784667969
v -2504.877197265625 -4178.50634765625 95.00016784667969
v -2504.877197265625 -3658.50634765625 95.00016784667969
v -3404.877197265625 -3658.50634765625 95.00016784667969
vn -5.134089568852561e-16 -1.0 8.698698157801133e-17
vn -5.134089568852561e-16 -1.0 8.698698157801133e-17
vn -5.134089568852561e-16 -1.0 8.698698157801133e-17
vn -5.134089568852561e-16 -1.0 8.698698157801133e-17
vn 1.0 -5.134089568852561e-16 0.0
vn 1.0 -5.134089568852561e-16 0.0
vn 1.0 -5.134089568852561e-16 0.0
vn 1.0 -5.134089568852561e-16 0.0
vn 5.134089568852561e-16 1.0 -8.698698157801133e-17
vn 5.134089568852561e-16 1.0 -8.698698157801133e-17
vn 5.134089568852561e-16 1.0 -8.698698157801133e-17
vn 5.134089568852561e-16 1.0 -8.698698157801133e-17
vn -1.0 5.134089568852561e-16 0.0
vn -1.0 5.134089568852561e-16 0.0
vn -1.0 5.134089568852561e-16 0.0
vn -1.0 5.134089568852561e-16 0.0
vn -3.5076824896933986e-33 -9.381912286078492e-17 -1.0
vn -3.5076824896933986e-33 -9.381912286078492e-17 -1.0
vn -3.5076824896933986e-33 -9.381912286078492e-17 -1.0
vn -3.5076824896933986e-33 -9.381912286078492e-17 -1.0
vn -1.4030729958773594e-32 5.965841644691699e-17 1.0
vn -1.4030729958773594e-32 5.965841644691699e-17 1.0
vn -1.4030729958773594e-32 5.965841644691699e-17 1.0
vn -1.4030729958773594e-32 5.965841644691699e-17 1.0
f 3//3 2//2 1//1
f 4//4 2//2 3//3
f 6//6 7//7 5//5
f 6//6 8//8 7//7
f 11//11 10//10 9//9
f 12//12 10//10 11//11
f 14//14 15//15 13//13
f 14//14 16//16 15//15
f 20//20 18//18 17//17
f 20//20 19//19 18//18
f 24//24 21//21 22//22
f 24//24 22//22 23//23
