# ICROS2025 material233
v -2504.877197265625 531.3637084960938 820.0
v -2504.877197265625 -6600.63623046875 820.0
v -2472.877197265625 531.3637084960938 820.0
v -2472.877197265625 -6600.63623046875 820.0
v -2504.877197265625 531.3637084960938 820.0
v -2504.877197265625 -6600.63623046875 820.0
v -2504.877197265625 531.3637084960938 20.0
v -2504.877197265625 -6600.63623046875 20.0
v -2504.877197265625 531.3637084960938 20.0
v -2504.877197265625 531.3637084960938 820.0
v -2472.877197265625 531.3637084960938 20.0
v -2472.877197265625 531.3637084960938 820.0
v -2472.877197265625 -6600.63623046875 20.0
v -2472.877197265625 -6568.50634765625 20.0
v -2472.877197265625 -6600.63623046875 820.0
v -2472.877197265625 531.3637084960938 820.0
v -2472.877197265625 531.3637084960938 20.0
v -2472.877197265625 -5668.50634765625 20.0
v -2472.877197265625 -5668.50634765625 470.0
v -2472.877197265625 -6568.50634765625 470.0
v -2504.877197265625 -6600.63623046875 820.0
v -2504.877197265625 -6600.63623046875 20.0
v -2472.877197265625 -6600.63623046875 820.0
v -2472.877197265625 -6600.63623046875 20.0
v -1572.877197265625 -6568.50634765625 470.0
v -2472.877197265625 -6568.50634765625 470.0
v -1572.877197265625 -6568.50634765625 20.0
v -2472.877197265625 -6568.50634765625 20.0
v -2472.877197265625 -5668.50634765625 470.0
v -2472.877197265625 -6568.50634765625 470.0
v -1572.877197265625 -6568.50634765625 470.0
v -1572.877197265625 -5668.50634765625 470.0
v -1572.877197265625 -6568.50634765625 20.0
v -1572.877197265625 -6568.50634765625 470.0
v -1572.877197265625 -5668.50634765625 20.0
v -1572.877197265625 -5668.50634765625 470.0
v -2472.877197265625 -5668.50634765625 470.0
v -1572.877197265625 -5668.50634765625 470.0
v -2472.877197265625 -5668.50634765625 20.0
v -1572.877197265625 -5668.50634765625 20.0
v -2504.877197265625 -6600.63623046875 20.0
v -2504.877197265625 531.3637084960938 20.0
v -2472.877197265625 -6600.63623046875 20.0
v -2472.877197265625 -6568.50634765625 20.0
v -1572.877197265625 -6568.50634765625 20.0
v -1572.877197265625 -5668.50634765625 20.0
v -2472.877197265625 -5668.50634765625 20.0
v -2472.877197265625 531.3637084960938 20.0
vn 0.0 -2.80449141294771e-16 1.0
vn 0.0 -2.80449141294771e-16 1.0
vn 0.0 -2.80449141294771e-16 1.0
vn 0.0 -2.80449141294771e-16 1.0
vn -1.0 5.002963045266083e-16 0.0
vn -1.0 5.002963045266083e-16 0.0
vn -1.0 5.002963045266083e-16 0.0
vn -1.0 5.002963045266083e-16 0.0
vn 5.002963045266083e-16 1.0 2.80449141294771e-16
vn 5.002963045266083e-16 1.0 2.80449141294771e-16
vn 5.002963045266083e-16 1.0 2.80449141294771e-16
vn 5.002963045266083e-16 1.0 2.80449141294771e-16
vn 1.0 -5.002963045266083e-16 0.0
vn 1.0 -5.002963045266083e-16 0.0
vn 1.0 -5.002963045266083e-16 0.0
vn 1.0 -5.002963045266083e-16 0.0
vn 1.0 -5.002963045266083e-16 0.0
vn 1.0 -5.002963045266083e-16 0.0
vn 1.0 -5.002963045266083e-16 0.0
vn 1.0 -5.002963045266083e-16 0.0
vn -5.002963045266083e-16 -1.0 -2.80449141294771e-16
vn -5.002963045266083e-16 -1.0 -2.80449141294771e-16
vn -5.002963045266083e-16 -1.0 -2.80449141294771e-16
vn -5.002963045266083e-16 -1.0 -2.80449141294771e-16
vn -1.005571151079822e-15 -1.0 -1.290998807931419e-15
vn -1.5108459976330359e-15 -1.0 -2.80449141294771e-16
vn -5.002963045266083e-16 -1.0 -2.301548606916965e-15
vn -1.005571151079822e-15 -1.0 -1.290998807931419e-15
vn 0.0 -2.80449141294771e-16 1.0
vn 0.0 -2.80449141294771e-16 1.0
vn 0.0 -2.80449141294771e-16 1.0
vn 0.0 -2.80449141294771e-16 1.0
vn 1.0 -5.002963045266083e-16 0.0
vn 1.0 -5.002963045266083e-16 0.0
vn 1.0 -5.002963045266083e-16 0.0
vn 1.0 -5.002963045266083e-16 0.0
vn 1.5108459976330359e-15 1.0 2.80449141294771e-16
vn 1.005571151079822e-15 1.0 1.290998807931419e-15
vn 1.005571151079822e-15 1.0 1.290998807931419e-15
vn 5.002963045266083e-16 1.0 2.301548606916965e-15
vn -1.2625425031343503e-14 1.676663867305057e-16 -1.0
vn -7.683109756859065e-15 2.5913051315246236e-16 -1.0
vn 5.531931075456998e-32 3.910222251276663e-16 -1.0
vn -5.24729605164869e-16 -2.910963983813168e-16 -1.0
vn -2.8421708795129297e-16 -7.715417975747509e-18 -1.0
vn -1.9748993860035615e-33 2.7650167659299036e-16 -1.0
vn -1.7916614542077148e-15 4.319298268991005e-17 -1.0
vn 9.17391864364604e-33 2.9878610758362614e-16 -1.0
f 2//2 3//3 1//1
f 2//2 4//4 3//3
f 6//6 5//5 7//7
f 6//6 7//7 8//8
f 10//10 11//11 9//9
f 10//10 12//12 11//11
f 19//19 17//17 16//16
f 19//19 18//18 17//17
f 20//20 13//13 14//14
f 15//15 20//20 19//19
f 15//15 13//13 20//20
f 15//15 19//19 16//16
f 22//22 23//23 21//21
f 22//22 24//24 23//23
f 28//28 27//27 25//25
f 26//26 28//28 25//25
f 32//32 29//29 30//30
f 32//32 30//30 31//31
f 36//36 34//34 33//33
f 36//36 33//33 35//35
f 38//38 39//39 37//37
f 38//38 40//40 39//39
f 44//44 43//43 41//41
f 47//47 45//45 44//44
f 47//47 44//44 41//41
f 46//46 45//45 47//47
f 48//48 47//47 42//42
f 42//42 47//47 41//41
