# ICROS2025 material228
v 1541.122802734375 -6600.63623046875 20.000167846679688
v 1541.122802734375 -6600.63623046875 36.00016784667969
v 1091.122802734375 -6600.63623046875 20.000167846679688
v 1091.122802734375 -6600.63623046875 36.00016784667969
v 1091.122802734375 -7500.63623046875 36.00016784667969
v 1091.122802734375 -6600.63623046875 36.00016784667969
v 1091.122802734375 -7500.63623046875 20.000167846679688
v 1091.122802734375 -6600.63623046875 20.000167846679688
v 1091.122802734375 -7500.63623046875 20.000167846679688
v 1091.122802734375 -7500.63623046875 36.00016784667969
v 1541.122802734375 -7500.63623046875 20.000167846679688
v 1541.122802734375 -7500.63623046875 36.00016784667969
v 1541.122802734375 -6600.63623046875 36.00016784667969
v 1541.122802734375 -7500.63623046875 36.00016784667969
v 1541.122802734375 -6600.63623046875 20.000167846679688
v 1541.122802734375 -7500.63623046875 20.000167846679688
v 1541.122802734375 -6600.63623046875 20.000167846679688
v 1091.122802734375 -6600.63623046875 20.000167846679688
v 1091.122802734375 -7500.63623046875 20.000167846679688
v 1541.122802734375 -7500.63623046875 20.000167846679688
v 1541.122802734375 -6600.63623046875 36.00016784667969
v 1091.122802734375 -6600.63623046875 36.00016784667969
v 1091.122802734375 -7500.63623046875 36.00016784667969
v 1541.122802734375 -7500.63623046875 36.00016784667969
vn -1.5092858688233119e-15 1.0 1.241497117232914e-16
vn -1.5092858688233119e-15 1.0 1.241497117232914e-16
vn -1.5092858688233119e-15 1.0 1.241497117232914e-16
vn -1.5092858688233119e-15 1.0 1.241497117232914e-16
vn -1.0 -1.5092858688233119e-15 0.0
vn -1.0 -1.5092858688233119e-15 0.0
vn -1.0 -1.5092858688233119e-15 0.0
vn -1.0 -1.5092858688233119e-15 0.0
vn 2.5198355619297395e-15 -1.0 -1.241497117232914e-16
vn 2.5198355619297395e-15 -1.0 -1.241497117232914e-16
vn 2.5198355619297395e-15 -1.0 -1.241497117232914e-16
vn 2.5198355619297395e-15 -1.0 -1.241497117232914e-16
vn 1.0 1.5092858688233119e-15 0.0
vn 1.0 1.5092858688233119e-15 0.0
vn 1.0 1.5092858688233119e-15 0.0
vn 1.0 1.5092858688233119e-15 0.0
vn 0.0 1.241497117232914e-16 -1.0
vn 0.0 1.241497117232914e-16 -1.0
vn 0.0 1.241497117232914e-16 -1.0
vn 0.0 1.241497117232914e-16 -1.0
vn 0.0 -1.241497117232914e-16 1.0
vn 0.0 -1.241497117232914e-16 1.0
vn 0.0 -1.241497117232914e-16 1.0
vn 0.0 -1.241497117232914e-16 1.0
f 4//4 2//2 1//1
f 4//4 1//1 3//3
f 8//8 7//7 5//5
f 6//6 8//8 5//5
f 12//12 10//10 9//9
f 12//12 9//9 11//11
f 14//14 15//15 13//13
f 14//14 16//16 15//15
f 20//20 18//18 17//17
f 20//20 19//19 18//18
f 24//24 21//21 22//22
f 24//24 22//22 23//23
