# ICROS2025 material235
v -704.8772583007812 -6600.63623046875 20.000167846679688
v -704.8772583007812 -6600.63623046875 36.00016784667969
v -704.8772583007812 -7500.63623046875 20.000167846679688
v -704.8772583007812 -7500.63623046875 36.00016784667969
v 1091.122802734375 -7500.63623046875 36.00016784667969
v -704.8772583007812 -7500.63623046875 36.00016784667969
v 1091.122802734375 -7500.63623046875 20.000167846679688
v -704.8772583007812 -7500.63623046875 20.000167846679688
v 1091.122802734375 -7500.63623046875 20.000167846679688
v 1091.122802734375 -7500.63623046875 36.00016784667969
v 1091.122802734375 -6600.63623046875 20.000167846679688
v 1091.122802734375 -6600.63623046875 36.00016784667969
v -704.8772583007812 -6600.63623046875 36.00016784667969
v 1091.122802734375 -6600.63623046875 36.00016784667969
v -704.8772583007812 -6600.63623046875 20.000167846679688
v 1091.122802734375 -6600.63623046875 20.000167846679688
v -704.8772583007812 -6600.63623046875 20.000167846679688
v -704.8772583007812 -7500.63623046875 20.000167846679688
v 1091.122802734375 -7500.63623046875 20.000167846679688
v 1091.122802734375 -6600.63623046875 20.000167846679688
v -704.8772583007812 -6600.63623046875 36.00016784667969
v -704.8772583007812 -7500.63623046875 36.00016784667969
v 1091.122802734375 -7500.63623046875 36.00016784667969
v 1091.122802734375 -6600.63623046875 36.00016784667969
vn -1.0 -1.5092858688233119e-15 0.0
vn -1.0 -1.5092858688233119e-15 0.0
vn -1.0 -1.5092858688233119e-15 0.0
vn -1.0 -1.5092858688233119e-15 0.0
vn 1.5092858688233119e-15 -1.0 -8.832850971289473e-17
vn 1.5092858688233119e-15 -1.0 -8.832850971289473e-17
vn 1.5092858688233119e-15 -1.0 -8.832850971289473e-17
vn 1.5092858688233119e-15 -1.0 -8.832850971289473e-17
vn 1.0 1.5092858688233119e-15 0.0
vn 1.0 1.5092858688233119e-15 0.0
vn 1.0 1.5092858688233119e-15 0.0
vn 1.0 1.5092858688233119e-15 0.0
vn -1.5092858688233119e-15 1.0 8.832850971289473e-17
vn -1.5092858688233119e-15 1.0 8.832850971289473e-17
vn -1.5092858688233119e-15 1.0 8.832850971289473e-17
vn -1.5092858688233119e-15 1.0 8.832850971289473e-17
vn 0.0 8.832850971289473e-17 -1.0
vn 0.0 8.832850971289473e-17 -1.0
vn 0.0 8.832850971289473e-17 -1.0
vn 0.0 8.832850971289473e-17 -1.0
vn 1.1915690156645915e-32 -9.622342588156625e-17 1.0
vn 1.1915690156645915e-32 -9.622342588156625e-17 1.0
vn 1.1915690156645915e-32 -9.622342588156625e-17 1.0
vn 1.1915690156645915e-32 -9.622342588156625e-17 1.0
f 3//3 2//2 1//1
f 4//4 2//2 3//3
f 6//6 7//7 5//5
f 6//6 8//8 7//7
f 11//11 10//10 9//9
f 12//12 10//10 11//11
f 14//14 15//15 13//13
f 14//14 16//16 15//15
f 19//19 18//18 17//17
f 20//20 19//19 17//17
f 23//23 21//21 22//22
f 24//24 21//21 23//23
